<?xml version="1.0" encoding="UTF-8"?>
<svg id="Capa_1" data-name="Capa 1" xmlns="http://www.w3.org/2000/svg" width="366.13" height="290.97" viewBox="0 0 366.13 290.97">
   <style>
      #menu, #progressBar, #popupProgress, #popupNav, #popupBiblio, #popupCredits, #popupExit,
      #iconMenuHover, #iconBiblioHover, #iconCreditsHover, #iconExitHover {
         visibility: hidden;
      }

      #containerIconBack, #iconBack,
      #containerIconNext, #iconNext,
      #containerIconMenu, #iconMenu, #iconMenuHover,
      #containerIconBiblio, #iconBiblio, #iconBiblioHover, 
      #containerIconCredits, #iconCredits, #iconCreditsHover,
      #containerIconExit, #iconExit, #iconExitHover,
      #popupProgress {
         cursor: pointer;
         -webkit-user-select: none; /* Safari */
         -ms-user-select: none; /* IE 10 and IE 11 */
         user-select: none; /* Standard syntax */
      }

      #containerBack, #iconBack {
         opacity: 0.5;
         cursor: auto;
      }
   </style>
  <rect id="containerIcons" x="-.22" y="199.7" width="349.92" height="70.69" rx="11.02" ry="11.02" style="fill: #edf0f4; opacity: .25;"/>
  <circle id="containerMenu" cx="148.37" cy="234.13" r="22.79" style="fill: #5e4294;"/>
  <g id="iconMenu">
    <path d="M156.6,222.74c1.37,0,2.48,.94,2.48,2.11v18.48c0,1.16-1.11,2.1-2.48,2.1h-16.14c-1.37,0-2.48-.94-2.48-2.1v-18.48c0-1.16,1.11-2.11,2.48-2.11h16.14Zm-16.14,1c-.72,0-1.3,.5-1.3,1.11v18.48c0,.61,.58,1.11,1.3,1.11h16.14c.72,0,1.3-.5,1.3-1.11v-18.48c0-.61-.58-1.11-1.3-1.11h-16.14Z" style="fill: #fff;"/>
    <rect x="141.27" y="227.02" width="10.15" height="1.91" rx=".95" ry=".95" style="fill: #fff;"/>
    <rect x="153.22" y="227.02" width="2.57" height="1.91" rx=".95" ry=".95" style="fill: #fff;"/>
    <rect x="141.27" y="231.13" width="10.15" height="1.91" rx=".95" ry=".95" style="fill: #fff;"/>
    <rect x="153.22" y="231.13" width="2.57" height="1.91" rx=".95" ry=".95" style="fill: #fff;"/>
    <rect x="141.27" y="235.24" width="10.15" height="1.91" rx=".95" ry=".95" style="fill: #fff;"/>
    <rect x="153.22" y="235.24" width="2.57" height="1.91" rx=".95" ry=".95" style="fill: #fff;"/>
    <rect x="141.27" y="239.35" width="10.15" height="1.91" rx=".95" ry=".95" style="fill: #fff;"/>
    <rect x="153.22" y="239.35" width="2.57" height="1.91" rx=".95" ry=".95" style="fill: #fff;"/>
  </g>
  <circle id="containerNext" cx="95.51" cy="235.04" r="22.79" style="fill: #5e4294;"/>
  <path id="iconNext" d="M100.98,235.65l-9.27,9.27c-.46,.46-1.21,.46-1.67,0h0c-.46-.46-.46-1.21,0-1.67l8.43-8.43-7.98-7.98c-.46-.46-.46-1.21,0-1.67h0c.46-.46,1.21-.46,1.67,0l7.98,7.98,.84,.84c.46,.46,.46,1.21,0,1.67Z" style="fill: #fff;"/>
  <circle id="containerBack" cx="42.06" cy="235.43" r="22.79" style="fill: #5e4294;"/>
  <path id="iconBack" d="M36.51,234.82l9.27-9.27c.46-.46,1.21-.46,1.67,0h0c.46,.46,.46,1.21,0,1.67l-8.43,8.43,7.97,7.98c.23,.23,.35,.53,.35,.83,0,.3-.11,.6-.35,.84-.46,.46-1.21,.46-1.67,0l-8.81-8.81c-.46-.46-.46-1.21,0-1.67Z" style="fill: #fff;"/>
  <circle id="containerCredits" cx="255.82" cy="235.62" r="22.79" style="fill: #5e4294;"/>
  <g id="iconCredits">
    <path d="M266.58,236.28v1.25c1.14,0,1.99,.28,2.53,.84,.24,.26,.66,.84,.75,1.91v5.53c-.32,0-.82,0-1.62,0-.98,0-2.19,0-3.54-.02v-8.08c.18-.04,.36-.07,.54-.09,.34-.04,.82-.1,1.34-.1v-1.25m0,0c-.6,0-1.12,.06-1.49,.11-.7,.09-1.27,.25-1.64,.37v10.27c1.91,.02,3.56,.03,4.79,.03s2.06-.01,2.27-.03c.08,0,.28-.03,.43-.18,.11-.11,.18-.27,.18-.44v-6.19c-.13-1.59-.82-2.43-1.1-2.71-.96-1.01-2.31-1.23-3.43-1.23h0Z" style="fill: #fff;"/>
    <path d="M266.02,235.64c-2.4,0-4.35-1.95-4.35-4.35s1.95-4.35,4.35-4.35,4.35,1.95,4.35,4.35-1.95,4.35-4.35,4.35Zm0-7.45c-1.71,0-3.1,1.39-3.1,3.1s1.39,3.1,3.1,3.1,3.1-1.39,3.1-3.1-1.39-3.1-3.1-3.1Z" style="fill: #fff;"/>
    <path d="M257.99,235.21c1.91,0,3.47,1.55,3.47,3.47v7.11h-10.58v-7.11c0-1.91,1.55-3.47,3.47-3.47h3.65m0-1.25h-3.65c-2.6,0-4.71,2.11-4.71,4.71v7.6c0,.42,.34,.76,.76,.76h11.55c.42,0,.76-.34,.76-.76v-7.6c0-2.6-2.11-4.71-4.71-4.71h0Z" style="fill: #fff;"/>
    <path d="M256.17,232.9c-2.87,0-5.2-2.33-5.2-5.2s2.33-5.2,5.2-5.2,5.2,2.33,5.2,5.2-2.33,5.2-5.2,5.2Zm0-9.15c-2.18,0-3.95,1.77-3.95,3.95s1.77,3.95,3.95,3.95,3.95-1.77,3.95-3.95-1.77-3.95-3.95-3.95Z" style="fill: #fff;"/>
    <path d="M245.72,237.53c.52,0,.99,.06,1.34,.1,.18,.02,.36,.05,.54,.09v8.08c-1.35,.01-2.56,.02-3.54,.02-.8,0-1.3,0-1.62,0v-5.53c.09-1.07,.51-1.65,.75-1.91,.53-.56,1.38-.84,2.53-.84m0-1.25c-1.12,0-2.47,.23-3.43,1.23-.27,.29-.97,1.12-1.1,2.71v6.19c0,.17,.07,.32,.18,.44,.15,.15,.34,.17,.43,.18,.2,.02,1.02,.03,2.27,.03s2.88-.01,4.79-.03v-10.27c-.37-.13-.94-.29-1.64-.37-.36-.04-.89-.11-1.49-.11h0Z" style="fill: #fff;"/>
    <path d="M246.28,235.64c-2.4,0-4.35-1.95-4.35-4.35s1.95-4.35,4.35-4.35,4.35,1.95,4.35,4.35-1.95,4.35-4.35,4.35Zm0-7.45c-1.71,0-3.1,1.39-3.1,3.1s1.39,3.1,3.1,3.1,3.1-1.39,3.1-3.1-1.39-3.1-3.1-3.1Z" style="fill: #fff;"/>
  </g>
  <circle id="containerBiblio" cx="202.25" cy="235.62" r="22.79" style="fill: #5e4294;"/>
  <g id="iconBiblio">
    <path d="M188.85,245.66c-.12,0-.23-.04-.33-.1-.15-.1-.24-.27-.24-.46l-.12-18.34c0-.15,.06-.29,.16-.4,.11-.11,.25-.17,.4-.17h2.27s.04-2.32,.04-2.32c0-.27,.2-.5,.47-.55,1.4-.23,3.59-.34,6.03,.5,2.09,.72,3.6,1.86,4.59,2.83,1.03-1.09,2.27-1.97,3.63-2.57,2.82-1.25,5.48-1.01,6.81-.76,.27,.05,.46,.28,.46,.55v2.1l2.46,.1c.3,.01,.54,.26,.54,.56v18.46c0,.18-.09,.35-.23,.46-.15,.11-.33,.14-.5,.08-2.23-.72-4.55-1.08-6.89-1.05-2.18,.02-4.34,.38-6.43,1.05-.12,.04-.24,.04-.36,0-1.92-.66-3.92-1.01-5.94-1.05-2.26-.04-4.49,.31-6.64,1.05-.06,.02-.12,.03-.18,.03Zm6.47-2.21c.12,0,.25,0,.37,0,2.08,.04,4.13,.39,6.11,1.05,2.13-.67,4.35-1.02,6.58-1.05,2.21-.02,4.4,.27,6.52,.88v-17.16l-2.46-.1c-.3-.01-.54-.26-.54-.56v-2.16c-1.29-.19-3.43-.24-5.68,.76-1.38,.61-2.64,1.56-3.64,2.73-.1,.12-.26,.19-.42,.2-.16,0-.32-.06-.42-.18-.87-.94-2.37-2.21-4.57-2.97-1.96-.67-3.75-.68-5.02-.52l-.04,2.4c0,.31-.26,.55-.56,.55h-2.26s.11,17,.11,17c1.92-.58,3.91-.87,5.91-.87Z" style="fill: #fff;"/>
    <path d="M201.92,244.59c-.13,0-.26-.05-.37-.14-1.46-1.27-3.21-2.23-5.06-2.76-1.57-.45-3.19-.61-4.83-.46-.16,.01-.31-.04-.43-.15-.12-.11-.18-.26-.18-.42v-13.91c0-.31,.25-.56,.56-.56s.56,.25,.56,.56v13.3c1.57-.07,3.12,.11,4.63,.54,1.85,.53,3.61,1.45,5.11,2.68,1.42-1.21,3.1-2.13,4.88-2.67,1.64-.5,3.4-.7,5.12-.56v-13.52c0-.31,.25-.56,.56-.56s.56,.25,.56,.56v14.14c0,.16-.07,.32-.19,.42-.12,.11-.28,.16-.44,.14-1.76-.22-3.59-.06-5.28,.46-1.78,.55-3.44,1.5-4.82,2.75-.11,.1-.24,.15-.38,.15Z" style="fill: #fff;"/>
    <path d="M202.04,243.55h0c-.31,0-.56-.26-.56-.57l.11-15.49c0-.31,.25-.56,.56-.56h0c.31,0,.56,.26,.56,.57l-.11,15.49c0,.31-.25,.56-.56,.56Z" style="fill: #fff;"/>
  </g>
  <circle id="containerExit" cx="309.97" cy="235.62" r="22.79" style="fill: #5e4294;"/>
  <g id="iconExit">
    <path d="M311.71,247.89h-12.76c-.37,0-.67-.3-.67-.67v-23.95c0-.37,.3-.67,.67-.67h12.76c.37,0,.67,.3,.67,.67s-.3,.67-.67,.67h-12.08v22.6h12.08c.37,0,.67,.3,.67,.67s-.3,.67-.67,.67Z" style="fill: #fff;"/>
    <path d="M323.22,234.62l-7.49-6.72c-.77-.7-2.12-.22-2.12,.76v3.75h-9.14c-.38,0-.69,.31-.69,.69h0c0,.38,.31,.69,.69,.69h10.52v-4.7l7.01,6.3-7.01,6.14v-4.36h-10.52c-.38,0-.69,.31-.69,.69h0c0,.38,.31,.69,.69,.69h9.14v3.4c0,.97,1.33,1.45,2.11,.77l7.48-6.56c.24-.21,.36-.49,.36-.77s-.12-.55-.35-.76Z" style="fill: #fff;"/>
  </g>
  <line x1="8.07" y1="188.41" x2="341.41" y2="188.41" style="fill: none; opacity: .25; stroke: #edf0f4; stroke-linecap: round; stroke-miterlimit: 10; stroke-width: 5px;"/>
  <line id="progressBar" x1="8.07" y1="188.41" x2="51.17" y2="188.41" style="fill: none; stroke: #e20e18; stroke-linecap: round; stroke-miterlimit: 10; stroke-width: 5px;"/>
  <g id="popupProgress">
    <g style="opacity: .25;">
      <rect x="29.91" y="148.29" width="45.92" height="24.32" rx="5.04" ry="5.04" style="fill: #edf0f4;"/>
      <path d="M53.39,181.18l5.05-8.57h-12.17s5.05,8.57,5.05,8.57c.46,.79,1.6,.79,2.07,0Z" style="fill: #edf0f4;"/>
    </g>
    <text transform="translate(38.58 165.97)" style="fill: #fff; font-family: Poppins-SemiBold, Poppins; font-size: 13.03px;"><tspan x="0" y="0">88%</tspan></text>
  </g>
  <g id="popupCredits">
    <rect x="230.23" y="273.62" width="51.88" height="16.9" rx="5.75" ry="5.75" style="fill: #22254b;"/>
    <text transform="translate(237.74 285.71)" style="fill: #fff; font-family: OpenSans-Regular, &apos;Open Sans&apos;; font-size: 9.84px;"><tspan x="0" y="0">créditos</tspan></text>
  </g>
  <g id="popupExit">
    <rect x="291.57" y="273.62" width="38.6" height="16.9" rx="5.75" ry="5.75" style="fill: #22254b;"/>
    <text transform="translate(301.29 285.71)" style="fill: #fff; font-family: OpenSans-Regular, &apos;Open Sans&apos;; font-size: 9.84px;"><tspan x="0" y="0">salir</tspan></text>
  </g>
  <g id="popupBiblio">
    <rect x="166.29" y="273.62" width="71.92" height="16.9" rx="5.75" ry="5.75" style="fill: #22254b;"/>
    <text transform="translate(176.42 284.92)" style="fill: #fff; font-family: OpenSans-Regular, &apos;Open Sans&apos;; font-size: 9.84px;"><tspan x="0" y="0">bibliografía</tspan></text>
  </g>
  <g id="popupNav">
    <rect x="112.57" y="273.62" width="71.92" height="16.9" rx="5.75" ry="5.75" style="fill: #22254b;"/>
    <text transform="translate(122.53 284.92)" style="fill: #fff; font-family: OpenSans-Regular, &apos;Open Sans&apos;; font-size: 9.84px;"><tspan x="0" y="0">navegación</tspan></text>
  </g>
  <g id="menu">
    <rect x="21.01" width="255.89" height="182.75" rx="10" ry="10" style="fill: #22254b;"/>
    <g style="opacity: .2;">
      <path d="M29.82,64.12c73.51-.65,155.98-.66,229.49,0-73.51,.66-155.98,.65-229.49,0h0Z" style="fill: #fff;"/>
    </g>
    <g style="opacity: .2;">
      <path d="M29.82,34.97c73.51-.65,155.98-.66,229.49,0-73.51,.66-155.98,.65-229.49,0h0Z" style="fill: #fff;"/>
    </g>
    <rect id="containerMenuItem2" x="21.01" y="35.49" width="255.89" height="27.77" style="fill: #22254b;"/>
    <g id="textMenuItem2">
      <text transform="translate(41.75 55.89)" style="fill: #fff; font-family: Poppins-Medium, Poppins; font-size: 15.54px;"><tspan x="0" y="0">Índice</tspan></text>
    </g>
    <g style="opacity: .2;">
      <path d="M29.82,93.26c73.51-.65,155.98-.66,229.49,0-73.51,.66-155.98,.65-229.49,0h0Z" style="fill: #fff;"/>
    </g>
    <path d="M150.67,203.04l11.95-20.29h-27.35s11.95,20.29,11.95,20.29c.77,1.31,2.67,1.31,3.45,0Z" style="fill: #22254b;"/>
    <g style="opacity: .2;">
      <path d="M30.15,122.65c73.51-.65,155.98-.66,229.49,0-73.51,.66-155.98,.65-229.49,0h0Z" style="fill: #fff;"/>
    </g>
    <g style="opacity: .2;">
      <path d="M30.15,151.65c73.51-.65,155.98-.66,229.49,0-73.51,.66-155.98,.65-229.49,0h0Z" style="fill: #fff;"/>
    </g>
    <rect id="containerMenuItem3" x="21.01" y="64.63" width="255.89" height="27.77" style="fill: #22254b;"/>
    <rect id="containerMenuItem4" x="21.01" y="93.89" width="255.89" height="27.77" style="fill: #22254b;"/>
    <rect id="containerMenuItem5" x="21.01" y="123" width="255.89" height="27.77" style="fill: #22254b;"/>
    <g id="textMenuItem4" style="opacity: .3;">
      <text transform="translate(41.75 113.23)" style="fill: #fff; font-family: Poppins-Medium, Poppins; font-size: 15.54px;"><tspan x="0" y="0">Evaluación</tspan></text>
    </g>
    <g id="textMenuItem5" style="opacity: .3;">
      <text transform="translate(41.75 143.9)" style="fill: #fff; font-family: Poppins-Medium, Poppins; font-size: 15.54px;"><tspan x="0" y="0">Actividad de aprendizaje</tspan></text>
    </g>
    <g id="iconMenuItem5" style="opacity: .3;">
      <path d="M257.73,137.57l-6.05,6.05c-.15,.15-.35,.24-.57,.24s-.42-.08-.57-.24c-.31-.31-.31-.82,0-1.13l5.49-5.49-5.2-5.2c-.31-.31-.31-.82,0-1.13,.31-.31,.82-.31,1.13,0l5.76,5.76c.31,.31,.31,.82,0,1.13Z" style="fill: #fff;"/>
    </g>
    <g id="textMenuItem3">
      <text transform="translate(41.75 84.56)" style="fill: #fff; font-family: Poppins-Medium, Poppins; font-size: 15.54px;"><tspan x="0" y="0">Contenido</tspan></text>
    </g>
    <g id="iconMenuItem3">
      <path d="M257.73,78.93l-6.05,6.05c-.15,.15-.35,.24-.57,.24s-.42-.08-.57-.24c-.31-.31-.31-.82,0-1.13l5.49-5.49-5.2-5.2c-.31-.31-.31-.82,0-1.13,.31-.31,.82-.31,1.13,0l5.76,5.76c.31,.31,.31,.82,0,1.13Z" style="fill: #fff;"/>
    </g>
    <path id="containerMenuItem6" d="M21.01,172.75c0,5.52,4.48,10,10,10h235.89c5.52,0,10-4.48,10-10v-20.1H21.01v20.1Z" style="fill: #22254b;"/>
    <path id="containerMenuItem1" d="M266.89,0H31.01C25.49,0,21.01,4.48,21.01,10v24.27h255.89V10C276.89,4.48,272.42,0,266.89,0Z" style="fill: #22254b;"/>
    <g id="textMenuItem6" style="opacity: .3;">
      <text transform="translate(41.75 172.57)" style="fill: #fff; font-family: Poppins-Medium, Poppins; font-size: 15.54px;"><tspan x="0" y="0">Califícanos</tspan></text>
    </g>
    <g id="textMenuItem1">
      <text transform="translate(41.75 26.22)" style="fill: #fff; font-family: Poppins-Medium, Poppins; font-size: 15.54px;"><tspan x="0" y="0">Objetivo de aprendizaje</tspan></text>
    </g>
    <path id="bookmark" d="M30.82,20.67c0,.45-.22,.88-.65,1.14l-8.36,4.82c-.87,.5-1.96-.13-1.96-1.14V15.85c0-1.01,1.09-1.64,1.96-1.14l8.36,4.82c.43,.25,.65,.69,.65,1.13Z" style="fill: none; stroke: #fff; stroke-miterlimit: 10; stroke-width: 2px;"/>
  </g>
  <g id="iconBiblioHover">
    <path d="M212.82,223.82v16.68c0,.34-.26,.61-.58,.61-.02,0-.03,0-.05,0-3.59-.32-7.14,.96-9.77,3.54v-17.52c1.09-1.26,2.39-2.3,3.83-3.06,1-.53,3.92-1.18,6.07-.85,.29,.04,.5,.3,.5,.61Z" style="fill: #fff;"/>
    <path d="M213.76,226.38v15.35c0,.27-.21,.49-.47,.49-.01,0-.03,0-.04,0-3.69-.34-7.38,.73-10.39,3.01-.08,.06-.09,.17-.04,.25,.04,.06,.12,.09,.19,.07,4.05-1.26,8.37-1.22,12.41,.1,.25,.08,.51-.06,.59-.32,.01-.05,.02-.1,.02-.15v-18.49c0-.23-.15-.43-.37-.48l-1.33-.29c-.25-.06-.5,.11-.56,.38,0,.03-.01,.06-.01,.1Z" style="fill: #fff;"/>
    <path d="M191.37,223.82v16.68c0,.34,.25,.62,.57,.63,.02,0,.04,0,.06,0,3.59-.32,7.14,.96,9.77,3.54v-17.53c-1.09-1.26-2.39-2.3-3.83-3.06-1-.53-3.92-1.18-6.07-.85-.29,.04-.5,.3-.5,.61Z" style="fill: #fff;"/>
    <path d="M190.44,226.38v15.35c0,.27,.21,.49,.47,.49,.01,0,.03,0,.04,0,3.69-.34,7.38,.73,10.39,3.01,.08,.06,.09,.17,.04,.25-.04,.06-.12,.09-.19,.07-4.05-1.26-8.37-1.22-12.41,.1-.25,.08-.51-.06-.59-.32-.01-.05-.02-.1-.02-.15v-18.49c0-.23,.16-.43,.37-.48l1.33-.29c.25-.06,.5,.11,.56,.38,0,.03,0,.06,.01,.1Z" style="fill: #fff;"/>
  </g>
  <g id="iconCreditsHover">
    <path d="M263.45,236.49c.53-.19,1.09-.31,1.65-.38,1.05-.13,3.45-.43,4.92,1.15,.27,.29,.97,1.15,1.1,2.78v6.35c0,.17-.06,.33-.18,.45-.12,.11-.27,.18-.43,.19-.41,.04-3.21,.04-7.05,0v-10.54Z" style="fill: #fff;"/>
    <ellipse cx="266.01" cy="230.88" rx="3.72" ry="3.82" style="fill: #fff;"/>
    <path d="M254.35,233.62h3.65c2.6,0,4.71,2.16,4.71,4.83h0v7.8c0,.43-.34,.78-.76,.78h-11.56c-.42,0-.76-.35-.76-.78v-7.8c0-2.67,2.11-4.83,4.71-4.83,0,0,0,0,0,0Z" style="fill: #fff;"/>
    <ellipse cx="256.17" cy="227.2" rx="4.57" ry="4.69" style="fill: #fff;"/>
    <path d="M248.85,236.49c-.53-.19-1.09-.31-1.65-.38-1.05-.13-3.45-.43-4.92,1.15-.27,.29-.97,1.15-1.09,2.78v6.35c0,.17,.06,.33,.18,.45,.11,.11,.26,.18,.42,.19,.41,.04,3.21,.04,7.05,0v-10.54Z" style="fill: #fff;"/>
    <ellipse cx="246.28" cy="230.88" rx="3.72" ry="3.82" style="fill: #fff;"/>
  </g>
  <g id="iconExitHover">
    <path d="M311.71,247.89h-12.76c-.37,0-.67-.3-.67-.67h0v-23.95c0-.37,.3-.67,.67-.67h12.76c.37,.02,.66,.33,.65,.7-.02,.35-.3,.63-.65,.65h-12.08v22.6h12.08c.37,.02,.66,.33,.65,.7-.02,.35-.3,.63-.65,.65Z" style="fill: #fff;"/>
    <path d="M323.57,235.38c0,.3-.14,.58-.36,.77l-7.48,6.56c-.78,.69-2.11,.2-2.11-.76v-3.41h-9.14c-.38,0-.69-.31-.69-.69,0-.1,.02-.19,.06-.28v-4.2c-.04-.09-.06-.18-.06-.28,0-.38,.31-.69,.69-.68h9.14v-3.74c0-.97,1.35-1.45,2.12-.76l7.49,6.72c.22,.19,.35,.46,.35,.76Z" style="fill: #fff;"/>
  </g>
  <path id="iconMenuHover" d="M156.6,222.74h-16.13c-1.37,0-2.48,.94-2.48,2.1,0,0,0,0,0,0v18.48c0,1.16,1.11,2.1,2.48,2.1h16.13c1.37,0,2.48-.94,2.48-2.1v-18.48c0-1.16-1.11-2.11-2.48-2.11Zm-15.33,7.63c0-.39,.37-.7,.82-.7h8.5c.45,0,.82,.31,.82,.7v.23c0,.39-.37,.7-.82,.7h-8.5c-.45,0-.82-.31-.82-.7v-.23Zm10.15,10.7c0,.39-.37,.7-.82,.7h-8.5c-.45,0-.82-.31-.82-.7h0v-.23c0-.39,.37-.7,.82-.7h8.5c.45,0,.82,.31,.82,.7v.23Zm0-3.49c0,.39-.37,.7-.82,.7h-8.5c-.45,0-.82-.31-.82-.7v-.23c0-.39,.37-.7,.82-.7h8.5c.45,0,.82,.31,.82,.7v.23Zm0-3.49c0,.39-.37,.7-.82,.7h-8.5c-.45,0-.82-.31-.82-.7v-.23c0-.39,.37-.7,.82-.7h8.5c.45,0,.82,.31,.82,.7v.23Zm0-6.99v.22c0,.39-.37,.7-.82,.7,0,0,0,0,0,0h-8.5c-.45,0-.82-.31-.82-.7h0v-.22c0-.39,.37-.7,.82-.7,0,0,0,0,0,0h8.5c.45,0,.82,.31,.82,.7,0,0,0,0,0,0Zm4.38,13.97c0,.39-.37,.7-.82,.7h-.93c-.45,0-.82-.31-.82-.7v-.23c0-.39,.37-.7,.82-.7h.93c.45,0,.82,.31,.82,.7v.23Zm0-3.49c0,.39-.37,.7-.82,.7h-.93c-.45,0-.82-.31-.82-.7v-.23c0-.39,.37-.7,.82-.7h.93c.45,0,.82,.31,.82,.7v.23Zm0-3.49c0,.39-.37,.7-.82,.7h-.93c-.45,0-.82-.31-.82-.7h0v-.23c0-.39,.37-.7,.82-.7h.93c.45,0,.82,.31,.82,.7v.23Zm0-3.49c0,.39-.37,.7-.82,.7h-.93c-.45,0-.82-.31-.82-.7v-.23c0-.39,.37-.7,.82-.7h.93c.45,0,.82,.31,.82,.7v.23Zm0-3.5v.22c0,.39-.37,.7-.82,.7,0,0,0,0,0,0h-.93c-.45,0-.82-.31-.82-.7h0v-.22c0-.39,.37-.7,.82-.7,0,0,0,0,0,0h.93c.45,0,.82,.31,.82,.7h0Z" style="fill: #fff;"/>
</svg>