<svg xmlns="http://www.w3.org/2000/svg" viewBox="0 0 89.05 42.67"><defs><style>.cls-1{fill:#fff;}</style></defs><title>QV logo</title><g id="cont"><path class="cls-1" d="M50.08,33.25H47.94a112.36,112.36,0,0,0-.25-11.32C46.92,12.78,38.58,6,29.42,6.39A18,18,0,0,0,12.05,23.26C11.47,32.45,18,41,27.06,42c6.81.71,13.74.26,20.62.31h2.4a4.46,4.46,0,0,0,4.46-4.46v-.1A4.46,4.46,0,0,0,50.08,33.25Zm-11,0c-3.76,0-7.37.39-10.87-.09-4.72-.65-7.77-5.28-7.16-9.95a9,9,0,0,1,18,.86C39.13,27.09,39.06,30.15,39.06,33.23Z"/><path class="cls-1" d="M78.62,13.94l-10,17.36-10-17.36H78.62m6-7.86H52.51a4.37,4.37,0,0,0-3.78,6.55L64.81,40.48a4.37,4.37,0,0,0,7.57,0L88.46,12.63a4.37,4.37,0,0,0-3.79-6.55Z"/><circle class="cls-1" cx="6.01" cy="6.01" r="6.01"/></g></svg>