<svg xmlns="http://www.w3.org/2000/svg" viewBox="0 0 200 200"><defs><style>.cls-1{fill:#fff;}</style></defs><title>icon_navlistOVA</title><g id="Capa_1" data-name="Capa 1"><path class="cls-1" d="M160.42,0H132V.34H68V0H39.59A18.57,18.57,0,0,0,21,18.56v162.9A18.57,18.57,0,0,0,39.59,200H160.42A18.57,18.57,0,0,0,179,181.46V18.56A18.57,18.57,0,0,0,160.42,0Zm9.76,181.46a9.76,9.76,0,0,1-9.76,9.75H39.59a9.76,9.76,0,0,1-9.76-9.75V18.56a9.77,9.77,0,0,1,9.76-9.77h19.6v.45h81.63V8.79h19.6a9.77,9.77,0,0,1,9.76,9.77Z"/><path class="cls-1" d="M160.42,8.79h-19.6v.45H59.19V8.79H39.59a9.77,9.77,0,0,0-9.76,9.77v162.9a9.76,9.76,0,0,0,9.76,9.75H160.42a9.76,9.76,0,0,0,9.76-9.75V18.56A9.77,9.77,0,0,0,160.42,8.79Zm-38.8,152.73a6.16,6.16,0,0,1-6.16,6.16H51.78a6.15,6.15,0,0,1-6.16-6.16v-2a6.16,6.16,0,0,1,6.16-6.16h63.68a6.16,6.16,0,0,1,6.16,6.16Zm0-30.76a6.16,6.16,0,0,1-6.16,6.16H51.78a6.16,6.16,0,0,1-6.16-6.16v-2a6.16,6.16,0,0,1,6.16-6.16h63.68a6.16,6.16,0,0,1,6.16,6.16Zm0-30.77a6.16,6.16,0,0,1-6.16,6.17H51.78A6.16,6.16,0,0,1,45.62,100V98a6.16,6.16,0,0,1,6.16-6.16h63.68A6.16,6.16,0,0,1,121.62,98Zm0-30.76a6.16,6.16,0,0,1-6.16,6.16H51.78a6.16,6.16,0,0,1-6.16-6.16v-2a6.16,6.16,0,0,1,6.16-6.16h63.68a6.16,6.16,0,0,1,6.16,6.16Zm0-28.93a6.16,6.16,0,0,1-6.16,6.17H51.78a6.16,6.16,0,0,1-6.16-6.17V38.35a6.16,6.16,0,0,1,6.16-6.17h63.68a6.16,6.16,0,0,1,6.16,6.17Zm32.77,121.22a6.16,6.16,0,0,1-6.16,6.16H141.3a6.16,6.16,0,0,1-6.16-6.16v-2a6.16,6.16,0,0,1,6.16-6.16h6.93a6.16,6.16,0,0,1,6.16,6.16Zm0-30.76a6.16,6.16,0,0,1-6.16,6.16H141.3a6.16,6.16,0,0,1-6.16-6.16v-2a6.16,6.16,0,0,1,6.16-6.16h6.93a6.16,6.16,0,0,1,6.16,6.16Zm0-30.77a6.16,6.16,0,0,1-6.16,6.17H141.3a6.16,6.16,0,0,1-6.16-6.17V98a6.16,6.16,0,0,1,6.16-6.16h6.93A6.16,6.16,0,0,1,154.39,98Zm0-30.76a6.16,6.16,0,0,1-6.16,6.16H141.3a6.16,6.16,0,0,1-6.16-6.16v-2a6.16,6.16,0,0,1,6.16-6.16h6.93a6.16,6.16,0,0,1,6.16,6.16Zm0-28.93a6.16,6.16,0,0,1-6.16,6.17H141.3a6.16,6.16,0,0,1-6.16-6.17V38.35a6.16,6.16,0,0,1,6.16-6.17h6.93a6.16,6.16,0,0,1,6.16,6.17Z"/></g></svg>