<svg xmlns="http://www.w3.org/2000/svg" viewBox="0 0 200 200"><defs><style>.cls-1{fill:#fff;}</style></defs><title>icon_bibliography</title><g id="Capa_1" data-name="Capa 1"><path class="cls-1" d="M4.9,180.9a4,4,0,0,1-4-4L0,45.21a4.06,4.06,0,0,1,4-4.07H4l16.33,0,.29-16.7A4,4,0,0,1,24,20.54,88.5,88.5,0,0,1,100.3,44.45a81.81,81.81,0,0,1,26-18.45,83.55,83.55,0,0,1,48.87-5.44,4,4,0,0,1,3.28,4v15l17.64.71a4,4,0,0,1,3.88,4V176.86a4,4,0,0,1-5.29,3.84,155.17,155.17,0,0,0-95.62,0,4,4,0,0,1-2.55,0,138.82,138.82,0,0,0-90.33,0A3.92,3.92,0,0,1,4.9,180.9Zm46.46-15.85q1.34,0,2.67,0a146.6,146.6,0,0,1,43.86,7.53,162.93,162.93,0,0,1,94-1.21V48.21l-17.64-.71a4.05,4.05,0,0,1-3.88-4V28a75,75,0,0,0-40.79,5.44A73.78,73.78,0,0,0,103.51,53a4.06,4.06,0,0,1-3,1.42,4,4,0,0,1-3-1.29A80.41,80.41,0,0,0,28.68,28l-.3,17.23a4,4,0,0,1-4,4H8.11l.8,122.09A146.82,146.82,0,0,1,51.36,165.05Z"/><path class="cls-1" d="M98.71,173.16a4.06,4.06,0,0,1-2.66-1,96.07,96.07,0,0,0-36.32-19.82A95,95,0,0,0,25.05,149,4,4,0,0,1,22,148a4,4,0,0,1-1.32-3V45.19a4,4,0,1,1,8.09,0V140.7A102.14,102.14,0,0,1,62,144.58a104.05,104.05,0,0,1,36.69,19.2,98.88,98.88,0,0,1,71.75-23.23V43.46a4,4,0,1,1,8.08,0V145a4,4,0,0,1-1.36,3,4.09,4.09,0,0,1-3.18,1,90.75,90.75,0,0,0-72.51,23.07A4,4,0,0,1,98.71,173.16Z"/><path class="cls-1" d="M99.62,165.73h0a4,4,0,0,1-4-4.07l.76-111.2a4,4,0,0,1,4-4h0a4,4,0,0,1,4,4.07l-.76,111.19A4,4,0,0,1,99.62,165.73Z"/></g></svg>