<svg xmlns="http://www.w3.org/2000/svg" viewBox="0 0 200 200"><defs><style>.cls-1{fill:#fff;}</style></defs><title>icon_credits</title><g id="Capa_1" data-name="Capa 1"><path class="cls-1" d="M148.82,111.13a55.36,55.36,0,0,1,11-2.5c7-.84,23.07-2.8,32.88,7.52,1.82,1.92,6.49,7.49,7.33,18.13v41.38a4.13,4.13,0,0,1-1.18,2.91,4.45,4.45,0,0,1-2.85,1.21c-2.71.27-21.46.28-47.15,0Z"/><circle class="cls-1" cx="165.95" cy="74.59" r="24.9"/><path class="cls-1" d="M88,92.41h24.38a31.5,31.5,0,0,1,31.5,31.5v50.81a5.07,5.07,0,0,1-5.07,5.06H61.52a5.06,5.06,0,0,1-5.06-5.06V123.91A31.49,31.49,0,0,1,88,92.41Z"/><circle class="cls-1" cx="100.14" cy="50.59" r="30.58"/><path class="cls-1" d="M51.18,111.13a55.36,55.36,0,0,0-11-2.5c-7-.84-23.07-2.8-32.88,7.52C5.51,118.07.84,123.64,0,134.28v41.38a4.13,4.13,0,0,0,1.18,2.91A4.45,4.45,0,0,0,4,179.78c2.71.27,21.46.28,47.15,0Z"/><circle class="cls-1" cx="34.05" cy="74.59" r="24.9"/></g></svg>