<svg xmlns="http://www.w3.org/2000/svg" viewBox="0 0 200 200"><defs><style>.cls-1{fill:#d82400;}.cls-2{fill:#22244b;}</style></defs><title>Iconos QV</title><g id="Capa_1" data-name="Capa 1"><circle class="cls-1" cx="100" cy="100" r="100"/><path class="cls-2" d="M147.23,137.55a6.85,6.85,0,0,1-4.85,11.68,6.76,6.76,0,0,1-4.83-2L100,109.67,62.45,147.22a6.83,6.83,0,0,1-9.68,0,6.84,6.84,0,0,1,0-9.67L90.32,100,52.77,62.45a6.84,6.84,0,1,1,9.68-9.68L100,90.32l37.55-37.55a6.84,6.84,0,0,1,9.68,9.68L109.68,100Z"/></g></svg>