<svg xmlns="http://www.w3.org/2000/svg" viewBox="0 0 200 200"><defs><style>.cls-1{fill:#fff;}</style></defs><title>icon_navlistOVA</title><g id="Capa_1" data-name="Capa 1"><path class="cls-1" d="M160.42,0H132V.34H68V0H39.59A18.57,18.57,0,0,0,21,18.56v162.9A18.57,18.57,0,0,0,39.59,200H160.42A18.57,18.57,0,0,0,179,181.46V18.56A18.57,18.57,0,0,0,160.42,0Zm9.76,181.46a9.76,9.76,0,0,1-9.76,9.75H39.59a9.76,9.76,0,0,1-9.76-9.75V18.56a9.77,9.77,0,0,1,9.76-9.77h19.6v.45h81.63V8.79h19.6a9.77,9.77,0,0,1,9.76,9.77Z"/><rect class="cls-1" x="45.62" y="61.11" width="76" height="14.28" rx="6.16"/><rect class="cls-1" x="135.14" y="61.11" width="19.25" height="14.28" rx="6.16"/><rect class="cls-1" x="45.62" y="32.18" width="76" height="14.28" rx="6.16"/><rect class="cls-1" x="135.14" y="32.18" width="19.25" height="14.28" rx="6.16"/><rect class="cls-1" x="45.62" y="91.87" width="76" height="14.28" rx="6.16"/><rect class="cls-1" x="135.14" y="91.87" width="19.25" height="14.28" rx="6.16"/><rect class="cls-1" x="45.62" y="122.64" width="76" height="14.28" rx="6.16"/><rect class="cls-1" x="135.14" y="122.64" width="19.25" height="14.28" rx="6.16"/><rect class="cls-1" x="45.62" y="153.4" width="76" height="14.28" rx="6.16"/><rect class="cls-1" x="135.14" y="153.4" width="19.25" height="14.28" rx="6.16"/></g></svg>