<svg xmlns="http://www.w3.org/2000/svg" viewBox="0 0 200 200"><defs><style>.cls-1{fill:#fff;}</style></defs><title>icon_credits</title><g id="Capa_1" data-name="Capa 1"><path class="cls-1" d="M169.73,110v8.34c7.65,0,13.34,1.9,16.89,5.64,1.63,1.71,4.42,5.62,5,12.74v37c-2.13,0-5.5.06-10.84.06-6.56,0-14.63,0-23.67-.12v-54c1.2-.24,2.42-.44,3.64-.59a72.37,72.37,0,0,1,8.93-.66V110m0,0a79.1,79.1,0,0,0-9.94.73,55.47,55.47,0,0,0-11,2.49v68.66c12.75.13,23.79.2,32,.2s13.78-.07,15.14-.2a4.57,4.57,0,0,0,2.85-1.21,4.17,4.17,0,0,0,1.18-2.92V136.37c-.84-10.65-5.51-16.22-7.33-18.14-6.4-6.73-15.47-8.24-22.94-8.24Z"/><path class="cls-1" d="M166,105.74A29.07,29.07,0,1,1,195,76.67,29.1,29.1,0,0,1,166,105.74Zm0-49.81a20.74,20.74,0,1,0,20.74,20.74A20.76,20.76,0,0,0,166,55.93Z"/><path class="cls-1" d="M112.33,102.82A23.2,23.2,0,0,1,135.5,126v47.54H64.79V126A23.2,23.2,0,0,1,88,102.82h24.38m0-8.33H88A31.49,31.49,0,0,0,56.46,126V176.8a5.06,5.06,0,0,0,5.06,5.07h77.24a5.07,5.07,0,0,0,5.07-5.07V126a31.5,31.5,0,0,0-31.5-31.5Z"/><path class="cls-1" d="M100.14,87.42a34.75,34.75,0,1,1,34.75-34.74A34.78,34.78,0,0,1,100.14,87.42Zm0-61.16a26.42,26.42,0,1,0,26.42,26.42A26.45,26.45,0,0,0,100.14,26.26Z"/><path class="cls-1" d="M30.27,118.33a72.37,72.37,0,0,1,8.93.66c1.22.15,2.44.35,3.64.59v54c-9,.08-17.11.12-23.67.12-5.33,0-8.71,0-10.84-.06v-37c.63-7.12,3.42-11,5.05-12.74,3.55-3.74,9.24-5.64,16.89-5.64m0-8.34c-7.47,0-16.54,1.51-22.94,8.24C5.51,120.15.84,125.72,0,136.37v41.37a4.17,4.17,0,0,0,1.18,2.92A4.57,4.57,0,0,0,4,181.87c1.36.13,6.8.2,15.14.2s19.26-.07,32-.2V113.21a55.47,55.47,0,0,0-11-2.49,79.1,79.1,0,0,0-9.94-.73Z"/><path class="cls-1" d="M34.05,105.74A29.07,29.07,0,1,1,63.12,76.67,29.1,29.1,0,0,1,34.05,105.74Zm0-49.81A20.74,20.74,0,1,0,54.78,76.67,20.77,20.77,0,0,0,34.05,55.93Z"/></g></svg>