<svg xmlns="http://www.w3.org/2000/svg" viewBox="0 0 200 200"><defs><style>.cls-1{fill:#fff;}</style></defs><title>icon_bibliography</title><g id="Capa_1" data-name="Capa 1"><path class="cls-1" d="M177,27.74v114a4.19,4.19,0,0,1-4.53,4.18,91.39,91.39,0,0,0-70.14,24.18V50.37a94.21,94.21,0,0,1,27.51-20.94c7.2-3.59,28.11-8.07,43.58-5.84A4.19,4.19,0,0,1,177,27.74Z"/><path class="cls-1" d="M183.72,45.25V150.12a3.37,3.37,0,0,1-3.66,3.36,110.63,110.63,0,0,0-74.57,20.58,1.21,1.21,0,0,0,1.06,2.14,153.69,153.69,0,0,1,89.08.65,3.37,3.37,0,0,0,4.37-3.22V47.29a3.37,3.37,0,0,0-2.67-3.3l-9.52-2A3.38,3.38,0,0,0,183.72,45.25Z"/><path class="cls-1" d="M23,27.74v114A4.19,4.19,0,0,0,27.53,146a91.39,91.39,0,0,1,70.14,24.18V50.37A94.21,94.21,0,0,0,70.16,29.43c-7.2-3.59-28.11-8.07-43.58-5.84A4.19,4.19,0,0,0,23,27.74Z"/><path class="cls-1" d="M16.28,45.25V150.12a3.37,3.37,0,0,0,3.66,3.36,110.63,110.63,0,0,1,74.57,20.58,1.21,1.21,0,0,1-1.06,2.14,153.69,153.69,0,0,0-89.08.65A3.37,3.37,0,0,1,0,173.63V47.29A3.37,3.37,0,0,1,2.67,44l9.52-2A3.38,3.38,0,0,1,16.28,45.25Z"/></g></svg>