<svg xmlns="http://www.w3.org/2000/svg" viewBox="0 0 200 200"><defs><style>.cls-1{fill:#fff;}</style></defs><title>icon_exit</title><g id="Capa_1" data-name="Capa 1"><path class="cls-1" d="M106.21,200H5.33A5.33,5.33,0,0,1,0,194.67V5.33A5.33,5.33,0,0,1,5.33,0H106.21a5.34,5.34,0,0,1,0,10.67H10.67V189.33h95.54a5.34,5.34,0,0,1,0,10.67Z"/><path class="cls-1" d="M200,101.11a8.06,8.06,0,0,1-2.86,6.06L138,159c-6.16,5.42-16.7,1.58-16.7-6V126.05H49a5.45,5.45,0,0,1-5.44-5.44,5.26,5.26,0,0,1,.46-2.18V85.21A5.26,5.26,0,0,1,43.54,83,5.44,5.44,0,0,1,49,77.59h72.28V48c0-7.69,10.66-11.48,16.77-6l59.19,53.14A8,8,0,0,1,200,101.11Z"/></g></svg>