<svg xmlns="http://www.w3.org/2000/svg" viewBox="0 0 200 200"><defs><style>.cls-1{fill:#fff;}</style></defs><title>icon_exit</title><g id="Capa_1" data-name="Capa 1"><path class="cls-1" d="M106.21,200H5.33A5.33,5.33,0,0,1,0,194.67V5.33A5.33,5.33,0,0,1,5.33,0H106.21a5.34,5.34,0,0,1,0,10.67H10.67V189.33h95.54a5.34,5.34,0,0,1,0,10.67Z"/><path class="cls-1" d="M197.22,95.12,138,42c-6.11-5.51-16.77-1.72-16.77,6V77.59H49A5.44,5.44,0,0,0,43.54,83h0A5.44,5.44,0,0,0,49,88.47h83.17V51.31l55.41,49.77-55.41,48.56V115.16H49a5.45,5.45,0,0,0-5.44,5.45h0A5.45,5.45,0,0,0,49,126.05h72.28V153c0,7.63,10.54,11.47,16.7,6l59.18-51.84a7.85,7.85,0,0,0,.08-12Z"/></g></svg>