<?xml version="1.0" encoding="UTF-8"?>
<svg id="navBar" xmlns="http://www.w3.org/2000/svg" width="349.99" height="121.27" viewBox="0 0 349.99 121.27">
  <defs>
    <style>
      .cls-1, .cls-2 {
        fill: #fff;
      }

      .cls-3 {
        fill: #5e4294;
      }

      .cls-2 {
        font-family: Poppins-SemiBold, Poppins;
        font-size: 13.03px;
      }

      .cls-4, .cls-5 {
        fill: #edf0f4;
      }

      .cls-5, .cls-6, .cls-7 {
        opacity: .25;
      }

      .cls-8 {
        stroke: #e20e18;
      }

      .cls-8, .cls-6 {
        fill: none;
        stroke-linecap: round;
        stroke-miterlimit: 10;
        stroke-width: 5px;
      }

      .cls-6 {
        stroke: #edf0f4;
      }
    </style>
  </defs>
  <rect id="containerNavbar" class="cls-5" x="0" y="50.56" width="349.99" height="70.7" rx="11.02" ry="11.02"/>
  <circle id="containerMenu" class="cls-3" cx="148.62" cy="85.01" r="22.79"/>
  <g id="iconMenu">
    <path class="cls-1" d="M153.06,73.61h3.79c1.37,0,2.48,.94,2.48,2.11v18.48c0,1.16-1.11,2.1-2.48,2.1h-16.14c-1.37,0-2.48-.94-2.48-2.1v-18.48c0-1.16,1.11-2.11,2.48-2.11h3.79m-1.17,1h-2.62c-.72,0-1.3,.5-1.3,1.11v18.48c0,.61,.58,1.11,1.3,1.11h16.14c.72,0,1.3-.5,1.3-1.11v-18.48c0-.61-.58-1.11-1.3-1.11h-2.62"/>
    <rect class="cls-1" x="141.52" y="77.9" width="10.15" height="1.91" rx=".95" ry=".95"/>
    <rect class="cls-1" x="153.48" y="77.9" width="2.57" height="1.91" rx=".95" ry=".95"/>
    <rect class="cls-1" x="141.52" y="82.01" width="10.15" height="1.91" rx=".95" ry=".95"/>
    <rect class="cls-1" x="153.48" y="82.01" width="2.57" height="1.91" rx=".95" ry=".95"/>
    <rect class="cls-1" x="141.52" y="86.12" width="10.15" height="1.91" rx=".95" ry=".95"/>
    <rect class="cls-1" x="153.48" y="86.12" width="2.57" height="1.91" rx=".95" ry=".95"/>
    <rect class="cls-1" x="141.52" y="90.23" width="10.15" height="1.91" rx=".95" ry=".95"/>
    <rect class="cls-1" x="153.48" y="90.23" width="2.57" height="1.91" rx=".95" ry=".95"/>
  </g>
  <circle id="containerNext" class="cls-3" cx="95.75" cy="85.92" r="22.79"/>
  <path id="iconNext" class="cls-1" d="M101.22,86.52l-9.27,9.27c-.46,.46-1.21,.46-1.67,0h0c-.46-.46-.46-1.21,0-1.67l8.43-8.43-7.98-7.98c-.46-.46-.46-1.21,0-1.67h0c.46-.46,1.21-.46,1.67,0l7.98,7.98,.84,.84c.46,.46,.46,1.21,0,1.67Z"/>
  <circle id="containerBack" class="cls-3" cx="42.28" cy="86.3" r="22.79"/>
  <path id="iconBack" class="cls-1" d="M36.74,85.7l9.27-9.27c.46-.46,1.21-.46,1.67,0h0c.46,.46,.46,1.21,0,1.67l-8.43,8.43,7.98,7.98c.23,.23,.35,.53,.35,.83,0,.3-.11,.6-.35,.84-.46,.46-1.21,.46-1.67,0l-8.82-8.82c-.46-.46-.46-1.21,0-1.67Z"/>
  <circle id="containerCredits" class="cls-3" cx="256.1" cy="86.49" r="22.79"/>
  <g id="iconCredits">
    <path class="cls-1" d="M266.86,87.15v1.25c1.14,0,1.99,.28,2.53,.84,.24,.26,.66,.84,.75,1.91v5.53c-.32,0-.82,0-1.62,0-.98,0-2.19,0-3.54-.02v-8.08c.18-.04,.36-.07,.54-.09,.34-.04,.82-.1,1.34-.1v-1.25m0,0c-.6,0-1.13,.06-1.49,.11-.7,.09-1.27,.25-1.64,.37v10.27c1.91,.02,3.56,.03,4.79,.03s2.06-.01,2.27-.03c.08,0,.28-.03,.43-.18,.11-.11,.18-.27,.18-.44v-6.19c-.13-1.59-.82-2.43-1.1-2.71-.96-1.01-2.31-1.23-3.43-1.23h0Z"/>
    <path class="cls-1" d="M266.29,86.52c-2.4,0-4.35-1.95-4.35-4.35s1.95-4.35,4.35-4.35,4.35,1.95,4.35,4.35-1.95,4.35-4.35,4.35Zm0-7.45c-1.71,0-3.1,1.39-3.1,3.1s1.39,3.1,3.1,3.1,3.1-1.39,3.1-3.1-1.39-3.1-3.1-3.1Z"/>
    <path class="cls-1" d="M258.27,86.08c1.91,0,3.47,1.55,3.47,3.47v7.11h-10.58v-7.11c0-1.91,1.55-3.47,3.47-3.47h3.65m0-1.25h-3.65c-2.6,0-4.71,2.11-4.71,4.71v7.6c0,.42,.34,.76,.76,.76h11.56c.42,0,.76-.34,.76-.76v-7.6c0-2.6-2.11-4.71-4.71-4.71h0Z"/>
    <path class="cls-1" d="M256.45,83.78c-2.87,0-5.2-2.33-5.2-5.2s2.33-5.2,5.2-5.2,5.2,2.33,5.2,5.2-2.33,5.2-5.2,5.2Zm0-9.15c-2.18,0-3.95,1.77-3.95,3.95s1.77,3.95,3.95,3.95,3.95-1.77,3.95-3.95-1.77-3.95-3.95-3.95Z"/>
    <path class="cls-1" d="M245.99,88.4c.52,0,.99,.06,1.34,.1,.18,.02,.36,.05,.54,.09v8.08c-1.35,.01-2.56,.02-3.54,.02-.8,0-1.3,0-1.62,0v-5.53c.09-1.07,.51-1.65,.75-1.91,.53-.56,1.38-.84,2.53-.84m0-1.25c-1.12,0-2.47,.23-3.43,1.23-.27,.29-.97,1.12-1.1,2.71v6.19c0,.17,.07,.32,.18,.44,.15,.15,.34,.17,.43,.18,.2,.02,1.02,.03,2.27,.03s2.88-.01,4.79-.03v-10.27c-.37-.13-.94-.29-1.64-.37-.36-.04-.89-.11-1.49-.11h0Z"/>
    <path class="cls-1" d="M246.56,86.52c-2.4,0-4.35-1.95-4.35-4.35s1.95-4.35,4.35-4.35,4.35,1.95,4.35,4.35-1.95,4.35-4.35,4.35Zm0-7.45c-1.71,0-3.1,1.39-3.1,3.1s1.39,3.1,3.1,3.1,3.1-1.39,3.1-3.1-1.39-3.1-3.1-3.1Z"/>
  </g>
  <circle id="containerBiblio" class="cls-3" cx="202.51" cy="86.49" r="22.79"/>
  <g id="iconBiblio">
    <path class="cls-1" d="M189.11,96.54c-.12,0-.23-.04-.33-.1-.15-.1-.24-.27-.24-.46l-.12-18.34c0-.15,.06-.29,.16-.4,.11-.11,.25-.17,.4-.17h2.27s.04-2.32,.04-2.32c0-.27,.2-.5,.47-.55,1.4-.23,3.59-.34,6.03,.5,2.09,.72,3.6,1.86,4.6,2.83,1.03-1.09,2.27-1.97,3.63-2.57,2.82-1.25,5.48-1.01,6.81-.76,.27,.05,.46,.28,.46,.55v2.1l2.46,.1c.3,.01,.54,.26,.54,.56v18.46c0,.18-.09,.35-.23,.46-.15,.11-.33,.14-.5,.08-2.23-.72-4.55-1.08-6.89-1.05-2.18,.02-4.35,.38-6.43,1.05-.12,.04-.24,.04-.36,0-1.92-.66-3.92-1.01-5.94-1.05-2.26-.04-4.5,.31-6.64,1.05-.06,.02-.12,.03-.18,.03Zm6.47-2.21c.12,0,.25,0,.37,0,2.08,.04,4.13,.39,6.11,1.05,2.13-.67,4.35-1.03,6.58-1.05,2.21-.02,4.4,.27,6.52,.88v-17.16l-2.46-.1c-.3-.01-.54-.26-.54-.56v-2.16c-1.29-.19-3.43-.24-5.68,.76-1.38,.61-2.64,1.56-3.64,2.73-.1,.12-.26,.19-.42,.2-.16,0-.32-.06-.42-.18-.87-.94-2.37-2.21-4.57-2.97-1.96-.67-3.75-.68-5.02-.52l-.04,2.4c0,.31-.26,.55-.56,.55h-2.26s.11,17.01,.11,17.01c1.92-.58,3.91-.87,5.91-.87Z"/>
    <path class="cls-1" d="M202.18,95.46c-.13,0-.26-.05-.37-.14-1.46-1.27-3.21-2.23-5.06-2.76-1.57-.45-3.19-.61-4.83-.46-.16,.01-.31-.04-.43-.15-.12-.11-.18-.26-.18-.42v-13.91c0-.31,.25-.56,.56-.56s.56,.25,.56,.56v13.31c1.57-.07,3.12,.11,4.63,.54,1.85,.53,3.61,1.45,5.11,2.68,1.42-1.21,3.1-2.13,4.88-2.67,1.64-.5,3.4-.7,5.12-.56v-13.53c0-.31,.25-.56,.56-.56s.56,.25,.56,.56v14.15c0,.16-.07,.32-.19,.42-.12,.11-.28,.16-.44,.14-1.76-.22-3.59-.06-5.28,.46-1.78,.55-3.45,1.5-4.82,2.76-.11,.1-.24,.15-.38,.15Z"/>
    <path class="cls-1" d="M202.31,94.43h0c-.31,0-.56-.26-.56-.57l.11-15.49c0-.31,.25-.56,.56-.56h0c.31,0,.56,.26,.56,.57l-.11,15.49c0,.31-.25,.56-.56,.56Z"/>
  </g>
  <circle id="containerExit" class="cls-3" cx="310.26" cy="86.49" r="22.79"/>
  <g id="iconExit">
    <path class="cls-1" d="M311.99,98.77h-12.76c-.37,0-.67-.3-.67-.67v-23.95c0-.37,.3-.67,.67-.67h12.76c.37,0,.67,.3,.67,.67s-.3,.67-.67,.67h-12.09v22.6h12.09c.37,0,.67,.3,.67,.67s-.3,.67-.67,.67Z"/>
    <path class="cls-1" d="M323.51,85.5l-7.49-6.72c-.77-.7-2.12-.22-2.12,.76v3.75h-9.14c-.38,0-.69,.31-.69,.69h0c0,.38,.31,.69,.69,.69h10.52v-4.7l7.01,6.3-7.01,6.14v-4.36h-10.52c-.38,0-.69,.31-.69,.69h0c0,.38,.31,.69,.69,.69h9.14v3.4c0,.97,1.33,1.45,2.11,.77l7.49-6.56c.24-.21,.36-.49,.36-.77s-.12-.55-.35-.76Z"/>
  </g>
  <line id="progressbarNavbar" class="cls-6" x1="8.29" y1="39.28" x2="341.7" y2="39.28"/>
  <line class="cls-8" x1="8.41" y1="39.29" x2="49.67" y2="39.29"/>
  <g>
    <g class="cls-7">
      <rect class="cls-4" x="28.07" width="45.93" height="24.33" rx="5.04" ry="5.04"/>
      <path class="cls-4" d="M51.55,32.9l5.05-8.58h-12.17s5.05,8.58,5.05,8.58c.46,.79,1.6,.79,2.07,0Z"/>
    </g>
    <text class="cls-2" transform="translate(39.89 16.99)"><tspan x="0" y="0">10%</tspan></text>
  </g>
</svg>